<svg xmlns="http://www.w3.org/2000/svg" width="2000" height="2000" viewBox="0 0 2000 2000">
  <g fill="none">
    <ellipse cx="999.863" cy="999.781" fill="#6E00FF" rx="999.863" ry="999.781" transform="rotate(-180 999.863 999.781)"/>
    <path fill="#FFF" d="M1001.47034,1121.94112 C791.062732,1121.94112 620.493663,951.385953 620.493663,740.995495 C620.493663,530.605037 791.062732,360.049872 1001.47034,360.049872 C1211.87795,360.049872 1382.44702,530.605037 1382.44702,740.995495 C1382.20961,951.287542 1211.77953,1121.70372 1001.47034,1121.94112 Z M1003.07784,620.443082 C935.605356,620.443082 880.908102,675.135878 880.908102,742.60286 C880.908102,810.069843 935.605356,864.762638 1003.07784,864.762638 C1070.55032,864.762638 1125.24758,810.069843 1125.24758,742.60286 C1125.17139,675.167458 1070.51874,620.519262 1003.07784,620.443082 L1003.07784,620.443082 Z"/>
    <ellipse cx="1104.35" cy="1477.169" fill="#FFF" rx="278.097" ry="278.074"/>
    <ellipse cx="1363.157" cy="327.903" fill="#FFF" rx="122.17" ry="122.16"/>
  </g>
</svg>
