<svg xmlns="http://www.w3.org/2000/svg" width="77" height="78" viewBox="0 0 77 78">
  <g fill="none" fill-rule="evenodd" transform="matrix(1 0 0 -1 .547 77.6)">
    <path fill="#069" fill-rule="nonzero" d="M0.336009145,71.3545678 C0.336009145,74.3702957 2.8427311,76.8164993 5.93507481,76.8164993 L70.5042548,76.8164993 C73.5964966,76.8164993 76.1033204,74.3702957 76.1033204,71.3545678 L76.1033204,6.03043701 C76.1033204,3.01369027 73.5964966,0.568505466 70.5042548,0.568505466 L5.93507481,0.568505466 C2.8427311,0.568505466 0.336009145,3.01369027 0.336009145,6.03043701 L0.336009145,71.3545678 L0.336009145,71.3545678 Z"/>
    <path fill="#FFF" d="M23.3034262 12.9890254L23.3034262 47.4192651 11.8594519 47.4192651 11.8594519 12.9890254 23.3034262 12.9890254zM17.5813881 52.1201328C21.5721335 52.1201328 24.0560337 54.7639889 24.0560337 58.0680449 23.9816593 61.4464752 21.5721335 64.0169757 17.657087 64.0169757 13.742448 64.0169757 11.1829508 61.4464752 11.1829508 58.0680449 11.1829508 54.7639889 13.6663416 52.1201328 17.50681 52.1201328L17.5811844 52.1201328 17.5813881 52.1201328zM29.6357417 12.9890254L41.0796141 12.9890254 41.0796141 32.2163286C41.0796141 33.2453438 41.1539884 34.2733403 41.4561725 35.0089334 42.28346 37.0649263 44.1664561 39.1942747 47.3278763 39.1942747 51.4688986 39.1942747 53.1254094 36.0369298 53.1254094 31.4083988L53.1254094 12.9890254 64.5683649 12.9890254 64.5683649 32.7308362C64.5683649 43.3062605 58.9225351 48.2271949 51.3933017 48.2271949 45.2196176 48.2271949 42.509334 44.7764278 41.0035077 42.4259939L41.0799197 42.4259939 41.0799197 47.4192651 29.6360473 47.4192651C29.7862224 44.1885646 29.6360473 12.9890254 29.6360473 12.9890254L29.6357417 12.9890254z"/>
  </g>
</svg>
