<svg xmlns="http://www.w3.org/2000/svg" xmlns:xlink="http://www.w3.org/1999/xlink" width="2481" height="2481" viewBox="0 0 2481 2481">
  <defs>
    <linearGradient id="logo-b" x1="3.1%" x2="98.7%" y1="1%" y2="100%">
      <stop offset="0%" stop-color="#623AA2"/>
      <stop offset="100%" stop-color="#F97794"/>
    </linearGradient>
    <circle id="logo-a" cx="1240.359" cy="1240.359" r="1240.131"/>
  </defs>
  <g fill="none" fill-rule="evenodd">
    <mask id="logo-c" fill="#fff">
      <use xlink:href="#logo-a"/>
    </mask>
    <use fill="url(#logo-b)" fill-rule="nonzero" transform="rotate(-180 1240.359 1240.359)" xlink:href="#logo-a"/>
    <path fill="#000" fill-opacity=".25" fill-rule="nonzero" d="M2439.52157,1679.05738 C2388.73642,1644.43858 1403.81283,732.102534 1403.81283,732.102534 C1403.81283,732.102534 1150.79275,638.038384 1009.34276,932.780895 C867.892771,1227.52341 1075.54898,1257.353 1075.54898,1257.353 L963.916,1327.64404 L1356.10624,1640.35474 L1126.59827,1912.49708 L1700.43219,2434.2361 C1826.34973,2556.38551 2187.16787,2527.75455 2411.21369,2285.8223 C2621.20948,2048.65096 2518.43384,1758.40523 2439.52157,1679.05738 Z" mask="url(#logo-c)" transform="rotate(4.992 1747.715 1611.286)"/>
    <path fill="#FFF" fill-rule="nonzero" d="M1201.7434,1325.69004 C995.900594,1325.69004 829.032028,1158.82147 829.032028,952.978665 C829.032028,747.135857 995.900594,580.267291 1201.7434,580.267291 C1407.58621,580.267291 1574.45478,747.135857 1574.45478,952.978665 C1574.22251,1158.72519 1407.48993,1325.45777 1201.7434,1325.69004 Z M1203.31602,835.032028 C1137.30736,835.032028 1083.79676,888.542623 1083.79676,954.551287 C1083.79676,1020.55995 1137.30736,1074.07055 1203.31602,1074.07055 C1269.32469,1074.07055 1322.83528,1020.55995 1322.83528,954.551287 C1322.76075,888.57352 1269.29379,835.10656 1203.31602,835.032028 L1203.31602,835.032028 Z" mask="url(#logo-c)"/>
    <circle cx="1302.391" cy="1673.239" r="272.064" fill="#FFF" fill-rule="nonzero" mask="url(#logo-c)"/>
    <path fill="#000" fill-opacity=".25" fill-rule="nonzero" d="M2484.17534,1656.38979 C2504.92734,1661.71001 2566.23523,1530.51614 2517.97461,1354.29442 C2517.30153,1352.40728 1596.25375,502.83197 1596.25375,502.83197 L1427.08681,675.373747 L2484.17534,1656.38979 Z" mask="url(#logo-c)" transform="rotate(5 1981.572 1079.689)"/>
    <circle cx="1555.583" cy="548.815" r="119.519" fill="#FFF" fill-rule="nonzero" mask="url(#logo-c)"/>
  </g>
</svg>
