<?xml version="1.0" standalone="no"?>
<!DOCTYPE svg PUBLIC "-//W3C//DTD SVG 20010904//EN"
 "http://www.w3.org/TR/2001/REC-SVG-20010904/DTD/svg10.dtd">
<svg version="1.0" xmlns="http://www.w3.org/2000/svg"
 width="642.000000pt" height="642.000000pt" viewBox="0 0 642.000000 642.000000"
 preserveAspectRatio="xMidYMid meet">
<metadata>
Created by potrace 1.11, written by Peter Selinger 2001-2013
</metadata>
<g transform="translate(0.000000,642.000000) scale(0.100000,-0.100000)"
fill="#000000" stroke="none">
<path d="M2898 6375 c-2 -2 -35 -6 -73 -9 -39 -3 -87 -8 -108 -11 -75 -10
-103 -15 -127 -20 -13 -2 -42 -7 -65 -10 -89 -13 -383 -93 -460 -125 -11 -4
-47 -18 -80 -31 -110 -41 -304 -132 -405 -190 -69 -40 -236 -145 -253 -159 -6
-6 -43 -33 -80 -60 -37 -27 -73 -54 -80 -60 -7 -6 -32 -27 -57 -48 -24 -20
-72 -62 -105 -94 -33 -31 -76 -71 -95 -90 -20 -18 -72 -73 -116 -123 -243
-275 -412 -540 -549 -865 -15 -36 -33 -78 -40 -95 -34 -78 -115 -356 -131
-445 -3 -14 -7 -31 -10 -39 -2 -8 -7 -30 -10 -50 -2 -20 -7 -47 -10 -61 -4
-14 -8 -38 -10 -55 -2 -16 -5 -46 -8 -65 -21 -140 -28 -544 -13 -685 4 -33 9
-85 12 -115 3 -30 8 -61 11 -69 2 -8 7 -30 10 -50 10 -66 35 -185 55 -261 12
-41 24 -88 29 -105 45 -168 181 -484 286 -665 23 -39 149 -231 194 -294 61
-86 183 -228 295 -341 67 -68 213 -201 250 -227 5 -5 35 -28 66 -52 30 -24 93
-69 140 -100 46 -30 89 -59 95 -63 14 -11 64 -39 208 -119 43 -24 80 -44 82
-44 3 0 43 -18 90 -40 47 -22 87 -40 89 -40 2 0 16 -5 32 -11 15 -6 30 -11 33
-11 3 0 14 -5 25 -11 11 -6 22 -12 25 -12 3 -1 48 -15 100 -32 91 -31 303 -86
365 -97 17 -3 40 -7 51 -10 55 -12 195 -29 246 -30 21 -1 38 -3 38 -6 0 -9
407 -13 480 -5 19 2 67 6 106 10 39 3 82 8 95 11 13 2 44 7 69 10 25 3 52 7
60 9 8 2 35 7 60 10 25 3 63 11 85 17 22 5 47 12 55 13 32 8 166 46 180 52 8
3 17 7 20 8 34 8 163 54 230 82 82 33 330 152 340 163 3 3 24 16 48 29 48 26
140 84 159 101 7 5 15 10 19 10 10 0 221 161 289 220 123 107 262 248 345 350
25 30 48 57 51 60 8 7 82 104 99 130 8 13 24 35 36 49 30 38 134 209 134 221
0 5 5 10 10 10 6 0 10 4 10 10 0 5 19 45 43 87 78 142 220 499 241 609 2 10
11 46 19 79 9 33 18 71 21 85 4 22 11 55 32 145 3 11 7 36 9 55 3 19 7 49 9
65 24 149 25 629 2 743 -3 13 -6 43 -7 68 -2 24 -5 44 -8 44 -3 0 -6 12 -7 28
0 33 -25 162 -50 265 -2 9 -6 25 -8 35 -26 105 -100 322 -148 432 -57 131
-177 362 -190 368 -5 2 -8 8 -8 13 0 15 -187 291 -210 309 -3 3 -13 15 -21 27
-51 74 -312 345 -407 423 -24 19 -54 44 -66 55 -56 49 -77 65 -85 65 -5 0 -14
6 -20 14 -19 23 -225 157 -341 222 -106 60 -288 145 -415 194 -43 17 -61 23
-75 26 -8 2 -23 7 -35 12 -18 9 -187 57 -270 78 -16 4 -34 8 -40 10 -30 7
-248 44 -295 50 -30 3 -68 8 -85 11 -34 5 -502 12 -507 8z"/>
</g>
</svg>
