<svg xmlns="http://www.w3.org/2000/svg" width="269" height="482" viewBox="0 0 269 482">
  <g fill="#5121E6">
    <path d="M118.5,285 C53.0542571,285 8.01479195e-15,231.945743 0,166.5 C-8.01479195e-15,101.054257 53.0542571,48 118.5,48 C183.945743,48 237,101.054257 237,166.5 C236.926154,231.91513 183.91513,284.926154 118.5,285 Z M119,129 C98.0131795,129 81,146.01318 81,167 C81,187.98682 98.0131795,205 119,205 C139.98682,205 157,187.98682 157,167 C156.976303,146.023003 139.976997,129.023697 119,129 L119,129 Z"/>
    <circle cx="150.5" cy="395.5" r="86.5"/>
    <circle cx="231" cy="38" r="38"/>
  </g>
</svg>
